<svg version="1.1" xmlns="http://www.w3.org/2000/svg" xmlns:xlink="http://www.w3.org/1999/xlink" width="126" height="150" viewBox="0,0,126,150"><g transform="translate(-177,-105)"><g data-paper-data="{&quot;isPaintingLayer&quot;:true}" fill-rule="nonzero" stroke="none" stroke-linecap="butt" stroke-linejoin="miter" stroke-miterlimit="10" stroke-dasharray="" stroke-dashoffset="0" style="mix-blend-mode: normal"><path d="M191.26501,163.9788c0,0 -0.34666,-14.1835 4.97561,-26.69865c5.51689,-12.97277 17.8299,-25.96531 41.37346,-26.87788c15.74737,-0.32231 25.89133,2.76517 33.43039,7.8875c19.81594,13.46376 16.78524,39.9292 19.1183,46.27336c1.36909,3.7229 3.01505,8.20686 4.13999,11.27963c2.50357,6.83853 4.15067,10.63567 4.15067,10.63567c0,0 -1.69887,-0.01729 -5.06876,-2.78287c-1.68225,-1.38057 -5.07097,-4.79501 -5.07097,-4.79501c0,0 4.00809,12.52962 1.7293,25.77453c-1.99988,12.13648 -9.95629,23.12532 -9.95629,23.12532l-1.12036,-3.61925c0,0 -1.51841,2.69646 -2.91313,4.41757c-1.99461,2.46136 -4.50981,4.14042 -4.50981,4.14042c0,0 0.29973,-1.63814 0.47714,-3.26996c0.17741,-1.63182 0.01947,-2.44462 0.01947,-2.44462c0,0 -2.38938,5.25323 -9.39223,7.70839c-4.97585,1.7445 -39.87865,1.23199 -45.65883,-0.53992c-6.61927,-2.02912 -10.00574,-6.3539 -10.00574,-6.3539l0.05607,3.39843c0,0 -4.88324,-2.88373 -8.0664,-11.86326c-2.91272,-8.21661 -4.19799,-16.23565 -4.19799,-16.23565c0,0 -2.99423,2.43109 -7.31831,3.55147c-5.41833,1.40391 -9.35315,0.49317 -9.35315,0.49317c0,0 5.07932,-3.52942 7.60879,-6.15708c2.25304,-2.34051 3.38785,-4.32314 3.38785,-4.32314c0,0 -3.26614,1.66555 -5.52072,2.22473c-2.25458,0.55918 -5.36367,0.47482 -5.36367,0.47482c0,0 6.67555,-6.39695 9.30718,-13.86883c2.48467,-7.05466 2.68782,-14.02631 2.68782,-14.02631c0,0 -2.67112,1.02982 -4.46767,1.27385c-1.79655,0.24404 -3.14626,0.03981 -3.14626,0.03981z" fill="#000000" stroke-width="1.5"/><path d="M195.28,170v27h-1.51c-1.98531,-0.04468 -3.63724,-1.53909 -3.88,-3.51v-16.8c0,-2.15 -0.74,-6.69 3.26,-6.69z" fill="#ffc61a" stroke-width="1"/><path d="M177,105h126v150h-126z" fill="none" stroke-width="1" opacity="0.6"/><path d="M275.14,156.81c0,0 0,20.94 -1,29.48c0,0 0.29,3.32 -2.71,11.46c-3.03,8.3 -2.58,15.44 -3.52,21.53c-1.65,12.81 -4.71,15.48 -4.71,15.48c-4.04,4.27 -6.92,7.58 -9.4,9.8c-2.48,2.22 -9.57,9.41 -14.71,9.41c-4.9,0.03 -9.67,-3.75 -17,-12.41c-4.01,-4.72 -3.3,-4 -6.48,-7c0,0 -5.14,-4.85 -5.79,-15.25c-0.98,-6.03 -0.25,-14.01 -1.49,-21.2c-0.55,-3.2 -2.63,-5.79 -3.16,-11.74c-0.6,-6.6 -0.63,-8.11 0.32,-19.92c13.64606,-2.1091 26.76611,-6.79581 38.66,-13.81c3.03,-1.82 -6.49,7.85 -7.32,9c-0.83,1.15 14.22,-1.64 34.9,-12.46c3.61,-1.89 3.37,6.57 3.41,7.63z" fill="#d2d2d2" stroke-width="1"/><path d="M285.43,169.65v27.67c-0.24028,3.26666 -2.95454,5.79793 -6.23,5.81c-2.98,0 -5.39,-3.53 -5.39,-5.81v-8c0.2081,-0.98608 0.30536,-1.99232 0.29,-3c0.54,-4.65 0.79,-12.97 0.9,-19.59c1.04838,-1.5411 2.76736,-2.49156 4.63,-2.56c3.86,0 5.81,2.38 5.8,5.48z" fill="#167085" stroke-width="1"/><path d="M206.9,193.69v3.63c0,2.28 -2.39,5.81 -5.39,5.81c-3.2332,-0.11633 -5.88865,-2.59277 -6.23,-5.81v-27.67c-0.07683,-1.47648 0.47969,-2.91564 1.5299,-3.9563c1.05021,-1.04065 2.49438,-1.58401 3.9701,-1.49371c1.84274,-0.01973 3.58742,0.82854 4.71,2.29c-0.95,11.77 -0.91,13.28 -0.32,19.88c0.21598,2.51141 0.79885,4.97761 1.73,7.32z" fill="#167085" stroke-width="1"/><g stroke-width="0"><path d="M240.04925,209.12139v-40.16996c0,0 8.42196,-0.03385 22.56423,1.3251c16.55369,1.59065 22.40481,3.56284 22.40481,3.56284l0.4577,-5.32853c0,0 10.03774,0.19033 10.12491,9.95921c0.11783,13.20545 -5.03713,20.99906 -12.75904,25.23758c-15.51109,8.51399 -32.66398,10.27805 -34.6164,9.3241c-3.2638,-1.59468 -8.1762,-3.91036 -8.1762,-3.91036z" data-paper-data="{&quot;index&quot;:null}" fill="#09b7c8"/><path d="M232.23741,212.94304c-1.9524,0.95394 -19.1053,-0.81011 -34.6164,-9.3241c-7.7219,-4.23853 -12.87687,-12.03214 -12.75904,-25.23758c0.08717,-9.76888 10.12491,-9.95923 10.12491,-9.95923l0.4577,5.32853c0,0 5.85112,-1.97219 22.40481,-3.56284c14.14227,-1.35894 22.56422,-1.3251 22.56422,-1.3251v40.16996c0,0 -4.9124,2.31568 -8.17618,3.91036z" fill="#09b7c8"/><path d="M240.0433,204.84005v-22.96257l43.71109,0.10291c0,0 3.98518,9.55043 -13.81125,17.49615c-15.87932,7.08979 -29.89984,5.36352 -29.89984,5.36352z" fill="#16495c"/><path d="M240.0433,199.94557v-18.26312l41.32528,0.39992c0,0 2.6937,7.27778 -13.73065,13.59735c-14.65507,5.63881 -27.59463,4.26584 -27.59463,4.26584z" fill="#162033"/><path d="M210.77765,199.47653c-17.79642,-7.94572 -13.81125,-17.49615 -13.81125,-17.49615l43.71109,-0.10291v22.96257c0,0 -14.02052,1.72627 -29.89984,-5.36352z" data-paper-data="{&quot;index&quot;:null}" fill="#16495c"/><path d="M213.08287,195.67973c-16.42435,-6.31957 -13.73067,-13.59735 -13.73067,-13.59735l41.3253,-0.39992v18.26312c0,0 -12.93956,1.37296 -27.59463,-4.26584z" data-paper-data="{&quot;index&quot;:null}" fill="#162033"/></g></g></g></svg>